<svg preserveAspectRatio="none" overflow="visible" style="display: block;" width="153.03" height="147.996" viewBox="0 0 153.03 147.996" fill="none" xmlns="http://www.w3.org/2000/svg">
<path id="Vector" d="M36.2508 86.9588C42.9325 102.477 50.5153 120.066 45.2108 146.536C45.0407 147.402 44.2757 147.996 43.4256 147.996C43.3065 147.996 43.1875 147.996 43.0685 147.962C42.0824 147.758 41.4363 146.807 41.6404 145.806C46.7409 120.457 39.7191 104.158 32.9184 88.385C30.3001 82.3407 27.8518 76.619 26.1856 70.5917C25.9136 69.6239 26.4917 68.6222 27.4608 68.3505C28.4299 68.0789 29.433 68.6561 29.705 69.6239C31.3032 75.4135 33.7175 81.0164 36.2848 86.9418L36.2508 86.9588ZM150.112 81.6106C146.508 76.0927 141.56 68.5373 141.39 66.0245C141.458 65.2944 141.526 64.5644 141.594 63.8343C142.258 57.06 143.023 49.3688 141.509 41.7285C138.806 28.1629 128.775 16.1422 113.983 8.77363C104.207 3.90085 93.2581 1.47295 82.3089 1.69367C76.4262 1.81252 70.6116 2.72935 65.069 4.35926C64.0999 4.6479 63.5558 5.6666 63.8448 6.63436C64.1339 7.60212 65.154 8.14543 66.1231 7.8568C71.3427 6.31177 76.8343 5.44588 82.3939 5.32703C92.748 5.10631 103.119 7.41536 112.368 12.0335C126.157 18.8927 135.474 29.9795 137.956 42.4247C139.367 49.5386 138.636 56.9411 137.99 63.4608C137.905 64.2418 137.837 65.0228 137.769 65.7868C137.769 65.8547 137.769 65.9396 137.769 66.0075C137.837 68.9787 140.574 73.6308 147.086 83.5801C149.5 87.3153 149.568 88.9792 149.211 89.7262C148.769 90.6431 147.086 91.3052 144.451 91.5599C141.492 91.8655 138.143 92.2051 136.256 94.3274C134.964 95.7875 135.491 97.74 135.967 99.4718C136.103 99.9812 136.256 100.524 136.358 101.034C136.392 101.187 136.443 101.356 136.511 101.492C136.987 102.443 137.021 103.054 136.902 103.326C136.783 103.598 136.324 103.835 135.678 104.005L134.777 104.226C133.553 104.531 131.682 105.007 130.05 105.38C129.319 105.55 128.775 106.144 128.656 106.874C128.537 107.604 128.877 108.334 129.506 108.725C129.693 108.827 129.863 108.912 130.288 109.082C130.798 109.302 131.597 109.625 132.515 110.066C132.719 110.168 132.941 110.27 133.179 110.372C134.199 110.83 135.338 111.374 135.661 112.002C135.933 112.562 135.95 113.275 135.678 113.903C135.491 114.362 135.066 114.973 134.182 115.245C134.012 115.296 133.859 115.364 133.723 115.465C132.243 116.467 132.056 118.555 131.818 121.187C131.733 122.223 131.631 123.275 131.461 124.345C130.951 127.537 130.016 129.557 128.605 130.525C126.446 132.002 122.79 131.221 118.557 130.304C116.738 129.914 114.85 129.506 112.861 129.235C104.53 128.08 98.5797 129.133 94.6352 137.945C93.7852 139.846 93.0541 141.901 92.357 143.87C92.17 144.413 91.966 144.957 91.7789 145.483C91.4389 146.434 91.932 147.486 92.8841 147.826C93.0881 147.894 93.2921 147.928 93.4961 147.928C94.2442 147.928 94.9583 147.47 95.2133 146.722C95.4003 146.179 95.6044 145.636 95.7914 145.076C96.4545 143.174 97.1515 141.188 97.9506 139.422C101.028 132.546 105.04 131.815 112.334 132.834C114.187 133.089 116.007 133.479 117.758 133.87C122.603 134.923 127.194 135.907 130.645 133.53C132.941 131.968 134.386 129.15 135.049 124.905C135.236 123.717 135.338 122.545 135.44 121.493C135.525 120.457 135.644 119.065 135.848 118.488C137.293 117.859 138.415 116.739 139.027 115.279C139.69 113.666 139.656 111.815 138.908 110.321C138.262 109.031 137.123 108.233 135.967 107.621L136.545 107.469C138.806 106.908 139.792 105.686 140.217 104.769C140.659 103.835 140.948 102.256 139.894 100.015C139.775 99.4548 139.622 98.9285 139.503 98.4361C139.333 97.8249 139.095 96.942 139.112 96.5515C140.149 95.5838 142.836 95.3121 144.825 95.1084C148.939 94.6839 151.456 93.4105 152.51 91.2203C153.989 88.1303 152.034 84.412 150.146 81.4918L150.112 81.6106ZM95.2303 81.5257C100.093 83.0707 105.278 82.3916 109.325 79.6411C113.082 77.0774 115.395 73.0366 115.769 68.4185C118.897 67.8072 121.668 65.8038 123.64 63.257C126.14 60.0142 127.483 55.8375 127.296 51.7967C127.16 48.7066 126.089 44.3092 121.889 40.608C122.297 38.5536 122.314 36.3974 121.889 34.2751C120.665 27.8912 115.786 22.7638 109.461 21.2357C106.69 20.5566 103.85 20.6245 101.181 21.3376C98.0866 16.6516 93.1731 13.6464 87.8005 13.2389C83.193 12.8824 78.9085 14.4953 75.8822 17.7042C74.9301 17.2458 73.944 16.8553 72.9068 16.5157C71.9377 16.2101 70.9176 16.7534 70.6116 17.7042C70.3056 18.672 70.8496 19.6907 71.8017 19.9963C74.658 20.8961 77.1233 22.4072 79.1465 24.4956C79.8436 25.2256 80.9997 25.2426 81.7308 24.5295C82.4619 23.8334 82.4789 22.6789 81.7648 21.9488C80.9317 21.0999 80.0476 20.3189 79.0955 19.6228C81.3228 17.6024 84.2981 16.6176 87.5115 16.8553C91.4899 17.1609 95.1963 19.3172 97.6786 22.6958C95.6724 23.7655 93.8702 25.2426 92.408 27.0932C91.7789 27.8912 91.915 29.0288 92.714 29.657C93.5131 30.2852 94.6523 30.1493 95.2813 29.3514C98.4267 25.3614 103.646 23.5617 108.577 24.7502C113.524 25.9557 117.316 29.9456 118.268 34.9372C118.999 38.7573 117.996 42.6623 115.497 45.6675C114.851 46.4485 114.953 47.603 115.735 48.2482C116.517 48.8934 117.673 48.7915 118.319 48.0105C119.237 46.9239 119.985 45.7184 120.58 44.4621C125.069 49.5216 124.185 56.4827 120.699 60.9989C118.098 64.3776 113.626 66.7206 108.9 63.1891C108.084 62.5779 106.945 62.7477 106.333 63.5457C105.72 64.3606 105.891 65.4982 106.69 66.1094C108.475 67.4337 110.26 68.1808 112.011 68.4694C111.637 71.8311 109.92 74.7344 107.183 76.602C104.326 78.5375 100.705 79.1318 97.1855 78.2829C97.6276 77.3151 97.9846 76.2794 98.2397 75.1928C98.4607 74.2081 97.8486 73.2233 96.8625 73.0026C95.8764 72.7819 94.8903 73.3931 94.6693 74.3778C93.6151 78.979 90.1468 82.1879 85.8453 82.5274C82.3599 82.7991 77.7694 81.0164 75.3721 75.1419C74.9981 74.2081 73.9269 73.7496 72.9918 74.1401C72.0567 74.5137 71.5977 75.5833 71.9887 76.5171C72.5838 77.9942 73.3319 79.3185 74.199 80.49C70.3396 83.5801 66.3611 82.3237 64.2359 81.2371C63.6578 80.9315 62.9607 80.9654 62.4167 81.322C57.3161 84.5648 56.534 88.4189 56.16 91.9504H50.0053C47.625 86.5004 49.5802 82.2218 50.5834 80.5749C50.8724 80.0995 50.9234 79.5223 50.7364 79.0129C50.5494 78.5036 50.1413 78.0791 49.6143 77.9093C46.6729 76.9076 44.0886 73.1724 45.0067 68.9108C45.1257 68.3675 44.9727 67.7903 44.6157 67.3488C43.9696 66.5848 43.4086 65.7529 42.9325 64.887C42.4395 64.0041 41.3343 63.6815 40.4502 64.1569C39.5661 64.6493 39.2431 65.7529 39.7192 66.6357C40.1782 67.4507 40.6883 68.2487 41.2663 68.9957C40.5522 74.0213 43.1195 78.3508 46.5199 80.4561C45.2108 83.4273 44.0546 88.5547 47.217 94.616C47.523 95.2272 48.1521 95.6007 48.8322 95.6007H57.8262C58.7613 95.6007 59.5604 94.8877 59.6454 93.9369L59.6964 93.3426C59.9854 90.0488 60.2234 87.4002 63.5558 84.9553C68.2313 86.9758 72.9068 86.3306 76.6983 83.1726C79.3506 85.3798 82.6319 86.4834 86.1343 86.1948C89.7387 85.9061 92.9011 84.1913 95.1453 81.5257H95.2303ZM92.476 96.0082C92.765 96.178 93.0881 96.2459 93.3941 96.2459C94.0232 96.2459 94.6353 95.9233 94.9753 95.3291L97.8996 90.2695C98.4097 89.3867 98.1036 88.2831 97.2365 87.7737C96.3694 87.2644 95.2473 87.57 94.7373 88.4359L91.8129 93.4954C91.3029 94.3783 91.6089 95.4819 92.476 95.9912V96.0082ZM71.5637 102.324C70.6796 101.815 69.5745 102.12 69.0644 102.986L66.1401 108.046C65.63 108.929 65.9361 110.032 66.8032 110.542C67.0922 110.711 67.4152 110.779 67.7213 110.779C68.3503 110.779 68.9624 110.457 69.3024 109.863L72.2268 104.803C72.7368 103.92 72.4308 102.817 71.5637 102.307V102.324ZM100.212 96.8741L98.3247 100.117C97.8146 101 98.1206 102.103 98.9877 102.613C99.2768 102.783 99.5998 102.85 99.9058 102.85C100.535 102.85 101.147 102.528 101.487 101.934L103.374 98.6908C103.884 97.8079 103.578 96.7043 102.711 96.195C101.844 95.6856 100.722 95.9912 100.212 96.8571V96.8741ZM55.4799 100.253C54.5958 99.7435 53.4907 100.049 52.9806 100.915L50.7364 104.786C50.2263 105.669 50.5323 106.772 51.3994 107.282C51.6885 107.452 52.0115 107.52 52.3176 107.52C52.9466 107.52 53.5587 107.197 53.8987 106.603L56.143 102.732C56.653 101.849 56.347 100.745 55.4799 100.236V100.253ZM110.481 82.884L107.557 87.9435C107.047 88.8264 107.353 89.93 108.22 90.4393C108.509 90.6091 108.832 90.677 109.138 90.677C109.767 90.677 110.379 90.3544 110.719 89.7602L113.643 84.7007C114.153 83.8178 113.847 82.7142 112.98 82.2048C112.096 81.6955 110.991 82.0011 110.481 82.867V82.884ZM83.9921 103.224C83.108 102.715 82.0028 103.02 81.4928 103.886L79.1465 107.944C78.6365 108.827 78.9425 109.93 79.8096 110.44C80.0986 110.61 80.4217 110.677 80.7277 110.677C81.3568 110.677 81.9688 110.355 82.3089 109.761L84.6551 105.703C85.1652 104.82 84.8592 103.716 83.9921 103.207V103.224ZM68.0953 97.5532L70.0845 94.1067C70.5946 93.2238 70.2885 92.1202 69.4214 91.6108C68.5544 91.1015 67.4322 91.4071 66.9222 92.273L64.933 95.7196C64.4229 96.6025 64.7289 97.7061 65.596 98.2154C65.8851 98.3852 66.2081 98.4531 66.5141 98.4531C67.1432 98.4531 67.7553 98.1305 68.0953 97.5363V97.5532ZM81.0337 97.5702L83.091 93.9878C83.601 93.1049 83.295 92.0013 82.4279 91.492C81.5438 90.9826 80.4387 91.2883 79.9286 92.1541L77.8714 95.7366C77.3613 96.6194 77.6674 97.723 78.5345 98.2324C78.8235 98.4022 79.1465 98.4701 79.4526 98.4701C80.0816 98.4701 80.6937 98.1475 81.0337 97.5532V97.5702ZM29.331 66.4999C26.9337 66.4999 24.5535 65.8717 22.3602 64.6153C16.0695 60.982 12.7371 53.2059 13.8253 44.8186C14.2503 41.5757 15.1684 38.231 16.4606 34.9372C15.5425 33.7318 14.7944 32.4074 14.2503 30.9813C12.5331 26.516 12.7201 20.5226 16.6816 14.6821C12.6351 14.6481 7.51757 15.8196 3.19909 20.6754C2.53601 21.4395 1.37989 21.4904 0.6148 20.8282C-0.150285 20.1661 -0.20129 19.0116 0.461783 18.2475C5.1373 13.0012 11.649 10.4715 18.7898 11.1336C19.0278 11.1506 19.2829 11.1845 19.5209 11.2185C22.0372 8.60385 25.4206 6.09105 29.824 3.83294C36.9478 0.165621 43.8336 -0.870057 50.2433 0.725905C55.8539 2.13511 60.7675 5.51379 64.4399 10.5224C68.0103 15.3782 70.0335 21.2527 70.2375 27.0083C70.6286 27.0932 71.0366 27.1951 71.4277 27.314C75.0321 28.4175 78.0244 30.9473 79.8436 34.4448C81.2038 37.0425 81.9348 40.0986 82.0199 43.2226C85.4202 44.513 89.2797 47.5012 92.9521 53.7492C93.4621 54.6151 93.1731 55.7357 92.306 56.245C91.4389 56.7544 90.3168 56.4657 89.8067 55.5998C87.3584 51.4232 84.6381 48.5708 81.7988 47.1107C81.6798 47.8747 81.5268 48.6387 81.3398 49.3858C80.2517 53.5624 77.4293 59.369 70.1355 63.325C65.681 65.7529 63.1818 64.055 62.2977 63.2231C60.1554 61.1687 60.0704 57.2467 62.0596 53.2398C64.6949 47.9766 70.3396 42.5775 77.0213 42.3567C77.4463 42.3567 77.8884 42.3567 78.3474 42.3907C78.1774 40.1496 77.5824 37.9933 76.6133 36.1257C75.2531 33.511 73.0259 31.6095 70.3736 30.7945C70.2885 30.7605 70.2035 30.7436 70.1185 30.7266C70.0505 31.3039 69.9825 31.8472 69.8805 32.4244C68.8434 38.2989 65.8171 43.0698 61.1075 46.2278C57.5031 48.6387 55.1739 48.3161 53.8477 47.62C52.2665 46.7711 51.3824 45.0393 51.3654 42.7472C51.3654 38.231 54.7488 31.8132 61.2775 28.2817C62.9267 27.3819 64.7289 26.8725 66.5651 26.7367C66.3101 21.83 64.5419 16.8214 61.4816 12.6617C54.4598 3.10287 43.2385 1.01454 31.4562 7.04184C28.3619 8.6378 25.8456 10.3356 23.8224 12.1014C26.1176 12.7975 28.3619 13.7822 30.5041 15.0556C31.7793 14.0539 33.0884 13.188 34.3976 12.4919C38.784 10.1828 43.7146 10.1319 47.591 12.3561C51.1444 14.3935 53.3037 18.1457 53.4907 22.6449C53.6947 27.6535 51.4505 33.511 46.8599 37.4161C47.608 40.9136 47.744 44.479 47.234 47.9256C46.2989 54.2076 43.2555 59.7086 38.9031 63.0193C35.9107 65.2944 32.5784 66.449 29.314 66.449L29.331 66.4999ZM66.4801 30.438C65.29 30.5738 64.1169 30.9303 63.0287 31.5076C57.8262 34.309 55.0379 39.3855 55.0379 42.7303C55.0379 43.5622 55.2419 44.2244 55.5819 44.3941C55.939 44.5809 57.0781 44.5469 59.0843 43.1887C62.9437 40.608 65.426 36.669 66.2931 31.7962C66.3781 31.3378 66.4461 30.8964 66.4801 30.438ZM78.2624 46.058C77.9904 46.0241 77.7184 46.0241 77.4463 46.0241C77.3443 46.0241 77.2423 46.0241 77.1403 46.0241C71.9887 46.1938 67.3982 50.744 65.324 54.8867C63.9638 57.6033 64.0489 59.8614 64.8309 60.6084C65.426 61.1857 66.7522 60.9989 68.3673 60.1161C74.505 56.7883 76.8853 51.9325 77.7864 48.4689C77.9904 47.671 78.1434 46.873 78.2454 46.058H78.2624ZM33.7345 17.2288C37.3049 19.9454 40.4672 23.4259 42.9155 27.5007C44.0716 29.4023 45.0067 31.4057 45.7378 33.4431C48.5431 30.404 50.0053 26.3632 49.8523 22.8317C49.7163 19.5549 48.2711 16.9742 45.7888 15.548C43.0175 13.952 39.3961 14.0199 36.1147 15.7517C35.3157 16.1762 34.5166 16.6685 33.7175 17.2458L33.7345 17.2288ZM20.745 34.2241C24.4344 37.7556 30.6911 39.793 38.8861 37.6198C40.2802 37.2463 41.5724 36.686 42.7115 35.9559C42.0484 33.7657 41.0793 31.5585 39.7702 29.3853C37.4069 25.4463 34.3125 22.1186 30.8272 19.6228C26.8657 23.358 23.2443 28.6213 20.728 34.2241H20.745ZM17.6677 29.657C17.8377 30.0814 18.0247 30.5059 18.2458 30.9303C20.728 25.9048 24.0094 21.2357 27.6478 17.6363C25.4716 16.4648 23.2103 15.6159 20.9151 15.1405C16.5966 20.3868 16.1715 25.7859 17.6847 29.6739L17.6677 29.657ZM24.2134 61.4404C28.1239 63.6985 32.6804 63.2231 36.7268 60.15C41.8274 56.262 44.9217 48.3161 43.5956 39.6911C42.4394 40.3024 41.1983 40.7778 39.8552 41.1513C34.0065 42.6963 28.4129 42.4586 23.6864 40.4382C22.0712 39.7591 20.626 38.8762 19.3339 37.8405C18.4498 40.3533 17.8207 42.8661 17.4977 45.294C16.5796 52.2211 19.2319 58.571 24.2304 61.4573L24.2134 61.4404Z" fill="#FFC100"/>
</svg>
