<svg preserveAspectRatio="none" overflow="visible" style="display: block;" width="78.13" height="87.5" viewBox="0 0 78.13 87.5" fill="none" xmlns="http://www.w3.org/2000/svg">
<g id="Camada_1" clip-path="url(#clip0_0_4)">
<path id="Vector" d="M39.06 0C27.86 0 18.75 9.11 18.75 20.31C18.75 31.51 27.86 40.62 39.06 40.62C50.26 40.62 59.37 31.51 59.37 20.31C59.37 9.11 50.26 0 39.06 0ZM39.06 3.12C48.57 3.12 56.25 10.79 56.25 20.3C56.25 29.81 48.57 37.49 39.06 37.49C29.55 37.49 21.87 29.81 21.87 20.3C21.87 10.79 29.55 3.13 39.06 3.12ZM34.38 7.81C33.97 7.81 33.56 7.97 33.27 8.27C32.98 8.56 32.81 8.96 32.81 9.38V14.06H28.13C27.71 14.06 27.31 14.22 27.02 14.52C26.73 14.81 26.56 15.21 26.56 15.63V25C26.56 25.41 26.72 25.82 27.02 26.11C27.32 26.4 27.72 26.57 28.13 26.57H32.81V31.25C32.81 31.66 32.97 32.07 33.27 32.36C33.56 32.66 33.97 32.82 34.38 32.82H43.75C44.17 32.82 44.57 32.66 44.86 32.36C45.15 32.07 45.32 31.66 45.32 31.25V26.57H50C50.42 26.57 50.82 26.41 51.11 26.11C51.4 25.82 51.57 25.41 51.57 25V15.63C51.57 15.21 51.41 14.81 51.11 14.52C50.81 14.22 50.41 14.06 50 14.06H45.32V9.38C45.32 8.96 45.16 8.56 44.86 8.27C44.56 7.97 44.16 7.81 43.75 7.81H34.38ZM35.93 10.93H42.18V15.63C42.18 16.49 42.88 17.18 43.73 17.18H48.43V23.43H43.73C42.87 23.43 42.18 24.13 42.18 24.99V29.68H35.93V24.99C35.93 24.13 35.23 23.44 34.37 23.43H29.67V17.18H34.37C35.23 17.18 35.92 16.48 35.93 15.63V10.93ZM6.25 12.5C2.82 12.5 0 15.32 0 18.75V48.43C0 56.87 2.96 65.05 8.36 71.53C8.4 71.58 8.44 71.62 8.49 71.67C12.48 75.47 15 80.54 15.63 86.01C15.72 86.8 16.39 87.39 17.18 87.39L32.77 87.5C32.77 87.5 32.79 87.5 32.81 87.5C32.85 87.5 32.9 87.5 32.94 87.5C33.08 87.49 33.22 87.46 33.35 87.41C33.35 87.41 33.36 87.41 33.37 87.41C33.43 87.39 33.49 87.36 33.55 87.33C33.8 87.2 34.01 87 34.16 86.76C34.16 86.76 34.16 86.75 34.16 86.74C34.29 86.51 34.37 86.26 34.37 85.97V70.33C34.37 65.95 33.09 61.67 30.69 58L21.21 43.53C19.32 40.65 15.48 39.74 12.5 41.46V18.76C12.5 15.33 9.7 12.51 6.26 12.51L6.25 12.5ZM71.87 12.5C68.44 12.5 65.63 15.32 65.63 18.75V41.45C62.65 39.73 58.8 40.64 56.92 43.52L47.44 57.99C45.04 61.65 43.76 65.94 43.76 70.32V85.88V85.95C43.76 86.01 43.76 86.07 43.78 86.14C43.78 86.14 43.78 86.16 43.78 86.17C43.81 86.37 43.88 86.56 43.98 86.73C43.98 86.73 43.98 86.74 43.98 86.75C44.09 86.92 44.22 87.07 44.38 87.19C44.4 87.21 44.43 87.23 44.45 87.24C44.47 87.25 44.49 87.27 44.52 87.28C44.55 87.3 44.57 87.31 44.6 87.33C44.78 87.42 44.97 87.48 45.18 87.5C45.23 87.5 45.28 87.5 45.32 87.5C45.33 87.5 45.34 87.5 45.35 87.5H60.94C61.74 87.5 62.41 86.91 62.5 86.12C63.12 80.62 65.65 75.51 69.65 71.68C69.69 71.64 69.73 71.59 69.77 71.54C75.18 65.06 78.13 56.88 78.13 48.44V18.76C78.13 15.33 75.31 12.51 71.87 12.51V12.5ZM6.25 15.62C8 15.62 9.37 17 9.37 18.75V46.87C9.37 46.92 9.37 46.98 9.37 47.03C9.39 48.04 9.64 49.06 10.18 49.99L18.77 64.87C18.98 65.23 19.32 65.49 19.72 65.6C20.12 65.71 20.55 65.65 20.91 65.44C21.66 65.01 21.91 64.05 21.47 63.3L12.88 48.42C12.62 47.97 12.49 47.48 12.46 47C12.46 46.95 12.46 46.91 12.46 46.86V46.58C12.54 45.6 13.09 44.68 14.02 44.15C15.59 43.24 17.57 43.71 18.56 45.23L28.04 59.68C30.11 62.84 31.22 66.53 31.22 70.3V84.35L18.42 84.27C17.46 78.67 14.81 73.46 10.7 69.5C5.78 63.58 3.09 56.12 3.09 48.42V18.74C3.09 16.99 4.47 15.61 6.22 15.61L6.25 15.62ZM71.87 15.62C73.62 15.62 75 17 75 18.75V48.43C75 56.11 72.32 63.55 67.43 69.46C63.28 73.45 60.6 78.72 59.65 84.37H46.88V70.31C46.88 66.54 47.98 62.85 50.05 59.69L59.53 45.24C60.53 43.72 62.5 43.25 64.07 44.16C65 44.7 65.55 45.61 65.63 46.59V46.87C65.63 46.87 65.63 46.97 65.63 47.01C65.61 47.49 65.47 47.97 65.21 48.43L56.62 63.31C56.19 64.05 56.44 65.01 57.18 65.44C57.54 65.65 57.97 65.71 58.37 65.6C58.77 65.49 59.12 65.23 59.32 64.87L67.91 49.99C68.45 49.06 68.7 48.04 68.72 47.03C68.72 46.98 68.72 46.92 68.72 46.87V18.75C68.72 17 70.1 15.62 71.84 15.62H71.87Z" fill="#FFC100"/>
</g>
<defs>
<clipPath id="clip0_0_4">
<rect width="78.13" height="87.5" fill="white"/>
</clipPath>
</defs>
</svg>
