<svg preserveAspectRatio="none" overflow="visible" style="display: block;" width="48" height="48" viewBox="0 0 48 48" fill="none" xmlns="http://www.w3.org/2000/svg">
<g id="Item container">
<rect width="48" height="48" rx="24" fill="#BCE5FD"/>
<path id="Union" fill-rule="evenodd" clip-rule="evenodd" d="M25.1244 10.5C25.4392 10.5 25.6866 10.7301 25.6867 11.0523V17.7506C25.7991 18.0038 26.4063 18.4873 27.1259 19.0167C27.1259 17.0602 27.3508 15.3798 28.1604 14.4821C28.5203 14.0678 29.015 13.8606 29.5547 13.8606C30.8816 13.8606 33.2653 15.2648 35.2893 17.9578C36.9759 20.2366 39 24.1958 39 30.1805C39 31.2163 38.9099 33.1729 38.4152 34.7841C37.7181 37.0398 36.5486 37.5 35.6715 37.5C34.0974 37.5 33.2653 36.9708 32.4557 36.4874C32.0059 36.2112 31.6011 35.958 31.0389 35.7738C30.9265 35.7278 30.7916 35.7047 30.6791 35.6586C29.0375 35.1062 26.7661 34.3696 26.7661 31.8607C26.7661 30.6177 26.9236 28.7993 27.081 27.0269C27.1934 25.7379 27.306 24.495 27.3285 23.7124L27.3057 23.6892C26.0239 22.4693 24.6297 21.7327 24 21.7327C23.3703 21.7327 21.9761 22.4693 20.6943 23.6892L20.6718 23.7124C20.6943 24.495 20.8066 25.738 20.919 27.0269C21.0764 28.7993 21.2339 30.6407 21.2339 31.8607C21.2339 34.3696 18.9625 35.1062 17.3209 35.6586C17.1859 35.7047 17.0735 35.7278 16.9611 35.7738C16.3989 35.958 15.9941 36.2112 15.5443 36.4874C14.7347 36.9938 13.8801 37.5 12.3285 37.5C11.4739 37.5 10.2819 37.0168 9.58479 34.7841C9.06757 33.1499 9 31.1933 9 30.1805C9 24.1958 11.0241 20.2366 12.7332 17.9578C14.7571 15.2648 17.1409 13.8606 18.4677 13.8606C19.0074 13.8606 19.4797 14.0678 19.862 14.4821C20.6716 15.3798 20.8965 17.0602 20.8965 19.0167C21.5937 18.4873 22.2233 18.0038 22.3358 17.7506V11.0523C22.3358 10.7532 22.5833 10.5 22.8981 10.5C23.2129 10.5 23.4604 10.7302 23.4604 11.0523V17.7966C23.4604 18.4641 22.7181 19.1087 20.8516 20.4207C20.8291 20.9962 20.7842 21.5717 20.7392 22.1472V22.1701C21.9311 21.2033 23.1679 20.6049 24 20.6048C24.8321 20.6048 26.0689 21.2264 27.2833 22.1701V22.1472C27.2383 21.5717 27.1934 20.9962 27.1709 20.4207C25.2819 19.1087 24.5623 18.4641 24.5623 17.7966V11.0523C24.5624 10.7532 24.8096 10.5 25.1244 10.5ZM29.5547 14.9886C29.3299 14.9886 29.1274 15.0575 28.97 15.2417C28.2728 16.0013 28.1828 18.027 28.2728 19.8224C28.4077 19.9144 28.5202 20.0065 28.6551 20.0985C29.2173 20.4898 29.7347 20.8351 30.2069 21.1803H33.4677C33.7825 21.1803 34.03 21.4105 34.03 21.7327C34.03 22.0319 33.7826 22.2853 33.4677 22.2853H31.6687C32.3208 22.8607 32.7255 23.3441 32.8829 23.8044C32.9729 24.1037 32.8155 24.4259 32.5231 24.518C32.4557 24.541 32.4108 24.5409 32.3433 24.5409C32.1185 24.5409 31.8935 24.3799 31.826 24.1498C31.691 23.6894 30.769 22.9528 29.7345 22.1932C29.7345 22.1702 29.7121 22.1702 29.6896 22.1472C29.2398 21.8249 28.7675 21.5027 28.3402 21.2035C28.3627 21.5257 28.3854 21.8019 28.4079 22.0551C28.4304 22.5385 28.4753 22.9529 28.4753 23.2521C29.2624 24.0577 30.207 25.3237 30.5668 26.7968C31.6463 26.8428 34.5471 27.0269 36.0089 28.0167C36.2787 28.2008 36.3464 28.5462 36.1664 28.7994C36.054 28.9605 35.8739 29.0524 35.694 29.0524C35.5816 29.0524 35.4691 29.0294 35.3792 28.9604C34.9294 28.6612 34.2547 28.4539 33.5351 28.2928C33.6476 29.0294 33.895 30.1343 34.4797 31.009C34.6372 31.2622 34.5696 31.6076 34.3222 31.7917C34.2323 31.8607 34.1199 31.8838 34.0076 31.8838C33.8277 31.8838 33.6476 31.7916 33.5351 31.6305C32.7256 30.4336 32.4558 28.9834 32.3658 28.1087C31.7361 28.0397 31.1289 27.9937 30.6567 27.9706C30.6567 28.5 30.6565 30.0884 31.1513 31.0782C31.2862 31.3544 31.1739 31.6997 30.9041 31.8378C30.8141 31.8838 30.7466 31.9067 30.6567 31.9067C30.4543 31.9067 30.252 31.7916 30.162 31.5845C29.5548 30.3416 29.5547 28.5463 29.5547 27.9478C29.5547 27.004 29.15 25.9681 28.3854 24.9323C28.3404 25.5998 28.2728 26.3824 28.2054 27.165C28.048 28.8223 27.8905 30.7099 27.8905 31.8838C27.8906 33.449 29.1949 34.0015 31.0389 34.6C31.1514 34.646 31.2863 34.6689 31.3987 34.7149C32.0734 34.9221 32.5907 35.2443 33.0405 35.5205C33.7826 35.9809 34.4122 36.3722 35.6715 36.3722C37.3132 36.3722 37.8981 33.0347 37.8981 30.1805C37.8981 24.4951 35.9865 20.7661 34.3899 18.6254C32.5233 16.1165 30.4318 14.9887 29.5547 14.9886ZM18.4453 14.9655C17.5682 14.9656 15.4991 16.0933 13.6101 18.6022C12.0134 20.7429 10.1019 24.4949 10.1019 30.1574C10.1019 33.0116 10.6868 36.3493 12.3285 36.3493C13.5652 36.3493 14.2174 35.958 14.9595 35.4977C15.4093 35.2214 15.9266 34.9222 16.6013 34.692C16.7137 34.669 16.8486 34.6229 16.9611 34.5768C18.8051 33.9784 20.1094 33.4259 20.132 31.8378C20.132 30.6639 19.952 28.7763 19.8171 27.119C19.7496 26.3134 19.6823 25.5538 19.6373 24.8862C18.8952 25.899 18.4677 26.958 18.4677 27.9017C18.4677 28.5003 18.4679 30.2956 17.8607 31.5385C17.7258 31.8147 17.3882 31.9299 17.1184 31.7917C16.8486 31.6536 16.7363 31.3083 16.8712 31.0321C17.3659 30.0424 17.3658 28.454 17.3658 27.9246C16.8936 27.9246 16.2863 27.9706 15.6567 28.0627C15.5667 28.9144 15.2969 30.3876 14.4873 31.5845C14.3749 31.7456 14.195 31.8377 14.0152 31.8378C13.9027 31.8378 13.7902 31.8147 13.7003 31.7457C13.4304 31.5616 13.3628 31.2162 13.5427 30.963C14.1274 30.0653 14.3749 28.9834 14.4873 28.2468C13.7677 28.3849 13.0931 28.6151 12.6433 28.9143C12.5309 28.9834 12.4409 29.0064 12.3285 29.0064C12.1485 29.0064 11.9685 28.9145 11.856 28.7534C11.6986 28.5002 11.7662 28.1318 12.0136 27.9706C13.4753 26.9809 16.3762 26.7968 17.4557 26.7508C17.8155 25.2776 18.7601 24.0115 19.5472 23.2058C19.5472 22.9066 19.5699 22.4924 19.6148 22.0091C19.6373 21.7559 19.6598 21.4566 19.6823 21.1574C19.255 21.4567 18.7827 21.7789 18.3329 22.1011C18.3329 22.1241 18.3104 22.1242 18.288 22.1472C17.2535 22.9068 16.3539 23.6664 16.1965 24.1038C16.129 24.3569 15.904 24.4949 15.6791 24.4949C15.6117 24.4949 15.5668 24.495 15.4993 24.472C15.207 24.3799 15.0496 24.0576 15.1395 23.7584C15.2745 23.2981 15.7017 22.7916 16.3538 22.2392H14.5547C14.2399 22.2392 13.9927 22.0089 13.9927 21.6866C13.9927 21.3875 14.24 21.1343 14.5547 21.1343H17.8155C18.2878 20.812 18.8052 20.4438 19.3674 20.0525C19.4798 19.9604 19.6148 19.8684 19.7497 19.7763C19.8171 17.981 19.7047 15.9554 19.03 15.2188C18.8726 15.0577 18.6926 14.9655 18.4453 14.9655Z" fill="#0460A9"/>
</g>
</svg>
