<svg preserveAspectRatio="none" overflow="visible" style="display: block;" width="48" height="48" viewBox="0 0 48 48" fill="none" xmlns="http://www.w3.org/2000/svg">
<g id="Icon container">
<rect width="48" height="48" rx="24" fill="#BCE5FD"/>
<path id="Vector" d="M23.9764 38C19.0288 38 15 33.4685 15 27.9353C15 24.2624 17.5681 20.3509 20.0654 16.6065C21.2435 14.8416 22.445 13.0051 23.3403 11.2641L24 10L24.6597 11.2641C25.555 13.0051 26.7565 14.8416 27.9346 16.6065C30.4319 20.3748 33 24.2624 33 27.9353C32.9529 33.4685 28.9241 38 23.9764 38ZM23.9764 13.1005C23.1518 14.5315 22.2094 15.9864 21.267 17.3935C18.911 20.971 16.4607 24.6678 16.4607 27.9114C16.4607 32.6576 19.8298 36.5213 23.9764 36.5213C28.123 36.5213 31.4921 32.6576 31.4921 27.9114C31.4921 24.6678 29.0419 20.971 26.6859 17.3935C25.7435 15.9864 24.801 14.5315 23.9764 13.1005Z" fill="#0460A9"/>
</g>
</svg>
