<svg preserveAspectRatio="none" overflow="visible" style="display: block;" width="52" height="64" viewBox="0 0 52 64" fill="none" xmlns="http://www.w3.org/2000/svg">
<g id="Camada_1" clip-path="url(#clip0_0_5)">
<path id="Vector" d="M15.2172 0H2.54076V5.0216H0V22.5938H1.26696V56.4778C1.26696 60.6252 4.67747 64.0068 8.87554 64.0068C13.0736 64.0068 16.4841 60.6319 16.4841 56.4778V22.5938H17.7579V5.0216H15.224V0H15.2172ZM5.07467 2.50741H12.6833V5.01482H5.07467V2.50741ZM3.80772 45.1809H6.34163V42.6734H3.80772V40.166H6.34163V37.6586H3.80772V35.1444H8.88239V47.695H3.80772V45.1876V45.1809ZM8.88239 61.4926C6.08139 61.4926 3.80772 59.2427 3.80772 56.471V50.1957H11.4163V32.6235H3.80772V30.1161H13.9571V56.471C13.9571 59.2359 11.6834 61.4926 8.88239 61.4926ZM13.9502 27.6086H3.80772V22.587H13.9571V27.6086H13.9502ZM15.2172 20.0796H2.54076V7.52901H15.224V20.0796H15.2172Z" fill="#002068"/>
<path id="Vector_2" d="M5.07467 10.0432H7.60859V17.5722H5.07467V10.0432Z" fill="#002068"/>
<path id="Vector_3" d="M10.1493 10.0432H12.6833V17.5722H10.1493V10.0432Z" fill="#002068"/>
<path id="Vector_4" d="M35.5159 0H22.8326V5.0216H20.2987V22.5938H21.5657V56.4778C21.5657 60.6252 24.9762 64.0068 29.1742 64.0068C33.3723 64.0068 36.7828 60.6319 36.7828 56.4778V22.5938H38.0566V5.0216H35.5227V0H35.5159ZM25.3665 2.50741H32.9751V5.01482H25.3665V2.50741ZM24.0996 45.1809H26.6335V42.6734H24.0996V40.166H26.6335V37.6586H24.0996V35.1512H29.1742V47.7018H24.0996V45.1876V45.1809ZM29.1674 61.4926C26.3664 61.4926 24.0927 59.2427 24.0927 56.471V50.1957H31.7013V32.6235H24.0927V30.1161H34.2421V56.471C34.2421 59.2359 31.9684 61.4926 29.1674 61.4926ZM34.2421 27.6086H24.0927V22.587H34.2421V27.6086ZM35.5159 20.0796H22.8326V7.52901H35.5159V20.0796Z" fill="#002068"/>
<path id="Vector_5" d="M25.3665 10.0432H27.9004V17.5722H25.3665V10.0432Z" fill="#002068"/>
<path id="Vector_6" d="M30.4412 10.0432H32.9751V17.5722H30.4412V10.0432Z" fill="#002068"/>
<path id="Vector_7" d="M45.6584 39.2444C44.9187 40.471 39.3167 49.2876 39.3167 52.7099C39.3167 56.1321 42.1588 58.9852 45.6584 58.9852C49.1579 58.9852 52 56.1728 52 52.7099C52 49.4638 47.0554 41.5553 45.6584 39.2444ZM45.6584 56.471C43.5628 56.471 41.8575 54.7836 41.8575 52.7099C41.8575 51.3206 43.8298 47.3494 45.6584 44.1508C47.4937 47.3494 49.4592 51.3206 49.4592 52.7099C49.4592 54.7836 47.754 56.471 45.6584 56.471Z" fill="#002068"/>
</g>
<defs>
<clipPath id="clip0_0_5">
<rect width="52" height="64" fill="white"/>
</clipPath>
</defs>
</svg>
