<svg preserveAspectRatio="none" overflow="visible" style="display: block;" width="188" height="205" viewBox="0 0 188 205" fill="none" xmlns="http://www.w3.org/2000/svg">
<g id="Vector">
<mask id="path-1-inside-1_0_4" fill="white">
<path fill-rule="evenodd" clip-rule="evenodd" d="M113.882 165.713H122.489C117.546 161.724 114.153 156.339 112.579 150.488C110.611 143.219 111.447 135.19 115.554 128.14C117.841 124.199 120.891 120.993 124.407 118.594V107.285C124.407 106.208 123.964 105.254 123.276 104.544C122.563 103.834 121.579 103.393 120.522 103.393V96.809C121.579 96.809 122.563 96.3684 123.276 95.6585C123.989 94.9487 124.407 93.994 124.407 92.917V58.9176C124.407 57.8406 123.964 56.886 123.251 56.1761C122.538 55.4663 121.579 55.0502 120.497 55.0502V48.4412C121.579 48.4412 122.538 48.0006 123.251 47.2907C123.964 46.5809 124.382 45.6263 124.382 44.5493V10.5009C124.382 9.42388 123.94 8.46925 123.251 7.7594C122.538 7.04955 121.579 6.60896 120.497 6.60896H10.5496C9.46763 6.60896 8.50857 7.04955 7.79542 7.7594C7.08228 8.46925 6.66423 9.42388 6.66423 10.5009V44.5003C6.66423 45.5773 7.10687 46.5319 7.79542 47.2418C8.50857 47.9516 9.46763 48.3922 10.5496 48.3922V55.0012C9.46763 55.0012 8.50857 55.4418 7.79542 56.1272C7.08228 56.837 6.66423 57.7916 6.66423 58.8687V92.8681C6.66423 93.9451 7.10687 94.8997 7.79542 95.6096C8.50857 96.3194 9.49222 96.76 10.5496 96.76V103.344C9.49222 103.344 8.50857 103.785 7.79542 104.495C7.08228 105.205 6.66423 106.159 6.66423 107.236V141.236C6.66423 142.313 7.10687 143.267 7.79542 143.977C8.50857 144.687 9.46763 145.128 10.5496 145.128V151.737C9.46763 151.737 8.50857 152.177 7.79542 152.863C7.08228 153.573 6.66423 154.527 6.66423 155.604V189.604C6.66423 190.681 7.10687 191.635 7.79542 192.345C8.50857 193.055 9.46763 193.471 10.5496 193.471H96.078C95.0205 191.121 94.4057 188.527 94.3566 185.785C91.5532 185.296 89.0449 183.974 87.1267 182.064C84.6922 179.641 83.1922 176.288 83.1922 172.592C83.1922 168.896 84.6922 165.542 87.1267 163.119C89.5613 160.696 92.9303 159.202 96.6436 159.202C99.8896 159.202 102.89 160.353 105.201 162.262C106.578 163.388 107.71 164.783 108.546 166.374C110.243 165.909 112.013 165.64 113.857 165.64L113.882 165.713ZM96.6682 131.029C94.7746 131.029 93.0778 130.27 91.8483 129.046C90.6187 127.822 89.8564 126.133 89.8564 124.248C89.8564 122.364 90.6187 120.675 91.8483 119.451C93.0778 118.227 94.7746 117.468 96.6682 117.468C98.5617 117.468 100.258 118.227 101.488 119.451C102.718 120.675 103.48 122.364 103.48 124.248C103.48 126.133 102.718 127.822 101.488 129.046C100.258 130.27 98.5371 131.029 96.6682 131.029ZM106.16 133.721C103.726 136.144 100.357 137.638 96.6436 137.638C92.9303 137.638 89.5613 136.144 87.1267 133.721C84.6922 131.298 83.1922 127.944 83.1922 124.248C83.1922 120.552 84.6922 117.199 87.1267 114.776C89.5613 112.352 92.9303 110.859 96.6436 110.859C100.357 110.859 103.726 112.352 106.16 114.776C108.595 117.199 110.095 120.552 110.095 124.248C110.095 127.944 108.595 131.298 106.16 133.721ZM34.3785 131.029C32.485 131.029 30.7882 130.27 29.5587 129.046C28.3291 127.822 27.5668 126.133 27.5668 124.248C27.5668 122.364 28.3291 120.675 29.5587 119.451C30.7882 118.227 32.485 117.468 34.3785 117.468C36.2721 117.468 37.9689 118.227 39.1984 119.451C40.428 120.675 41.1903 122.364 41.1903 124.248C41.1903 126.133 40.428 127.822 39.1984 129.046C37.9689 130.27 36.2721 131.029 34.3785 131.029ZM43.8954 133.721C41.4608 136.144 38.0918 137.638 34.3785 137.638C30.6653 137.638 27.2963 136.144 24.8617 133.721C22.4272 131.298 20.9271 127.944 20.9271 124.248C20.9271 120.552 22.4272 117.199 24.8617 114.776C27.2963 112.352 30.6653 110.859 34.3785 110.859C38.0918 110.859 41.4608 112.352 43.8954 114.776C46.3299 117.199 47.83 120.552 47.83 124.248C47.83 127.944 46.3299 131.298 43.8954 133.721ZM95.291 179.274C93.9631 179.005 92.7827 178.344 91.8729 177.438C90.6433 176.214 89.881 174.525 89.881 172.641C89.881 170.756 90.6433 169.067 91.8729 167.843C93.1024 166.619 94.7992 165.86 96.6927 165.86C98.3404 165.86 99.865 166.448 101.021 167.402C101.66 167.916 102.201 168.577 102.619 169.287C101.734 169.924 100.898 170.633 100.111 171.392C97.9223 173.571 96.2501 176.263 95.291 179.25V179.274ZM34.3785 179.421C32.485 179.421 30.7882 178.662 29.5587 177.438C28.3291 176.214 27.5668 174.525 27.5668 172.641C27.5668 170.756 28.3291 169.067 29.5587 167.843C30.7882 166.619 32.485 165.86 34.3785 165.86C36.2721 165.86 37.9689 166.619 39.1984 167.843C40.428 169.067 41.1903 170.756 41.1903 172.641C41.1903 174.525 40.428 176.214 39.1984 177.438C37.9689 178.662 36.2721 179.421 34.3785 179.421ZM43.8954 182.113C41.4608 184.537 38.0918 186.03 34.3785 186.03C30.6653 186.03 27.2963 184.537 24.8617 182.113C22.4272 179.69 20.9271 176.337 20.9271 172.641C20.9271 168.944 22.4272 165.591 24.8617 163.168C27.2963 160.744 30.6653 159.251 34.3785 159.251C38.0918 159.251 41.4608 160.744 43.8954 163.168C46.3299 165.591 47.83 168.944 47.83 172.641C47.83 176.337 46.3299 179.69 43.8954 182.113ZM91.0368 151.761C89.1924 151.761 87.7169 150.268 87.7169 148.457C87.7169 146.645 89.217 145.152 91.0368 145.152H102.275C104.119 145.152 105.595 146.645 105.595 148.457C105.595 150.268 104.095 151.761 102.275 151.761H91.0368ZM59.9043 151.761C58.0599 151.761 56.5844 150.268 56.5844 148.457C56.5844 146.645 58.0845 145.152 59.9043 145.152H71.1424C72.9868 145.152 74.4623 146.645 74.4623 148.457C74.4623 150.268 72.9622 151.761 71.1424 151.761H59.9043ZM28.7717 151.761C26.9274 151.761 25.4519 150.268 25.4519 148.457C25.4519 146.645 26.952 145.152 28.7717 145.152H40.0099C41.8543 145.152 43.3298 146.645 43.3298 148.457C43.3298 150.268 41.8297 151.761 40.0099 151.761H28.7717ZM96.6682 62.4913C100.381 62.4913 103.75 63.9845 106.185 66.4078C108.619 68.831 110.12 72.1845 110.12 75.8806C110.12 79.5767 108.619 82.9301 106.185 85.3534C103.75 87.7767 100.381 89.2699 96.6682 89.2699C92.9549 89.2699 89.5859 87.7767 87.1513 85.3534C84.7168 82.9301 83.2167 79.5767 83.2167 75.8806C83.2167 72.1845 84.7168 68.831 87.1513 66.4078C89.5859 63.9845 92.9549 62.4913 96.6682 62.4913ZM101.463 71.083C102.693 72.3069 103.455 73.9958 103.455 75.8806C103.455 77.7654 102.693 79.4543 101.463 80.6782C100.234 81.9021 98.5371 82.6609 96.6436 82.6609C94.75 82.6609 93.0532 81.9021 91.8237 80.6782C90.5941 79.4543 89.8318 77.7654 89.8318 75.8806C89.8318 73.9958 90.5941 72.3069 91.8237 71.083C93.0532 69.8591 94.75 69.1003 96.6436 69.1003C98.5125 69.1003 100.234 69.8346 101.463 71.083ZM34.3785 62.4913C38.0918 62.4913 41.4608 63.9845 43.8954 66.4078C46.3299 68.831 47.83 72.1845 47.83 75.8806C47.83 79.5767 46.3299 82.9301 43.8954 85.3534C41.4608 87.7767 38.0918 89.2699 34.3785 89.2699C30.6653 89.2699 27.2963 87.7767 24.8617 85.3534C22.4272 82.9301 20.9271 79.5767 20.9271 75.8806C20.9271 72.1845 22.4272 68.831 24.8617 66.4078C27.2963 63.9845 30.6653 62.4913 34.3785 62.4913ZM39.1984 71.083C40.428 72.3069 41.1903 73.9958 41.1903 75.8806C41.1903 77.7654 40.428 79.4543 39.1984 80.6782C37.9689 81.9021 36.2721 82.6609 34.3785 82.6609C32.485 82.6609 30.7882 81.9021 29.5587 80.6782C28.3291 79.4543 27.5668 77.7654 27.5668 75.8806C27.5668 73.9958 28.3291 72.3069 29.5587 71.083C30.7882 69.8591 32.485 69.1003 34.3785 69.1003C36.2721 69.1003 37.9689 69.8346 39.1984 71.083ZM96.6682 14.0991C100.381 14.0991 103.75 15.5922 106.185 18.0155C108.619 20.4388 110.12 23.7922 110.12 27.4884C110.12 31.1845 108.619 34.5379 106.185 36.9612C103.75 39.3845 100.381 40.8776 96.6682 40.8776C92.9549 40.8776 89.5859 39.3845 87.1513 36.9612C84.7168 34.5379 83.2167 31.1845 83.2167 27.4884C83.2167 23.7922 84.7168 20.4388 87.1513 18.0155C89.5859 15.5922 92.9549 14.0991 96.6682 14.0991ZM101.463 22.6907C102.693 23.9146 103.455 25.6036 103.455 27.4884C103.455 29.3731 102.693 31.0621 101.463 32.286C100.234 33.5098 98.5371 34.2687 96.6436 34.2687C94.75 34.2687 93.0532 33.5098 91.8237 32.286C90.5941 31.0621 89.8318 29.3731 89.8318 27.4884C89.8318 25.6036 90.5941 23.9146 91.8237 22.6907C93.0532 21.4669 94.75 20.7081 96.6436 20.7081C98.5125 20.7081 100.234 21.4669 101.463 22.6907ZM34.3785 14.0991C38.0918 14.0991 41.4608 15.5922 43.8954 18.0155C46.3299 20.4388 47.83 23.7922 47.83 27.4884C47.83 31.1845 46.3299 34.5379 43.8954 36.9612C41.4608 39.3845 38.0918 40.8776 34.3785 40.8776C30.6653 40.8776 27.2963 39.3845 24.8617 36.9612C22.4272 34.5379 20.9271 31.1845 20.9271 27.4884C20.9271 23.7922 22.4272 20.4388 24.8617 18.0155C27.2963 15.5922 30.6653 14.0991 34.3785 14.0991ZM39.1984 22.6907C40.428 23.9146 41.1903 25.6036 41.1903 27.4884C41.1903 29.3731 40.428 31.0621 39.1984 32.286C37.9689 33.5098 36.2721 34.2687 34.3785 34.2687C32.485 34.2687 30.7882 33.5098 29.5587 32.286C28.3291 31.0621 27.5668 29.3731 27.5668 27.4884C27.5668 25.6036 28.3291 23.9146 29.5587 22.6907C30.7882 21.4669 32.485 20.7081 34.3785 20.7081C36.2721 20.7081 37.9689 21.4669 39.1984 22.6907ZM91.0368 103.369C89.1924 103.369 87.7169 101.876 87.7169 100.064C87.7169 98.2531 89.217 96.76 91.0368 96.76H102.275C104.119 96.76 105.595 98.2531 105.595 100.064C105.595 101.876 104.095 103.369 102.275 103.369H91.0368ZM59.9043 103.369C58.0599 103.369 56.5844 101.876 56.5844 100.064C56.5844 98.2531 58.0845 96.76 59.9043 96.76H71.1424C72.9868 96.76 74.4623 98.2531 74.4623 100.064C74.4623 101.876 72.9622 103.369 71.1424 103.369H59.9043ZM28.7717 103.369C26.9274 103.369 25.4519 101.876 25.4519 100.064C25.4519 98.2531 26.952 96.76 28.7717 96.76H40.0099C41.8543 96.76 43.3298 98.2531 43.3298 100.064C43.3298 101.876 41.8297 103.369 40.0099 103.369H28.7717ZM91.0368 55.0012C89.1924 55.0012 87.7169 53.5081 87.7169 51.6967C87.7169 49.8854 89.217 48.3922 91.0368 48.3922H102.275C104.119 48.3922 105.595 49.8854 105.595 51.6967C105.595 53.5081 104.095 55.0012 102.275 55.0012H91.0368ZM59.9043 55.0012C58.0599 55.0012 56.5844 53.5081 56.5844 51.6967C56.5844 49.8854 58.0845 48.3922 59.9043 48.3922H71.1424C72.9868 48.3922 74.4623 49.8854 74.4623 51.6967C74.4623 53.5081 72.9622 55.0012 71.1424 55.0012H59.9043ZM28.7717 55.0012C26.9274 55.0012 25.4519 53.5081 25.4519 51.6967C25.4519 49.8854 26.952 48.3922 28.7717 48.3922H40.0099C41.8543 48.3922 43.3298 49.8854 43.3298 51.6967C43.3298 53.5081 41.8297 55.0012 40.0099 55.0012H28.7717ZM131.047 115.167C131.858 114.873 132.67 114.604 133.506 114.384C140.76 112.45 148.728 113.258 155.761 117.223C155.835 117.272 155.884 117.297 155.958 117.321C163.04 121.384 167.786 127.92 169.753 135.214C171.721 142.484 170.884 150.513 166.802 157.562C164.933 160.769 162.573 163.486 159.868 165.689H168.475C173.86 165.689 178.729 167.867 182.27 171.392C185.811 174.917 188 179.764 188 185.124V185.565C188 190.925 185.811 195.772 182.27 199.297C178.729 202.821 173.86 205 168.475 205H113.882C108.939 205 104.439 203.164 100.972 200.129H10.5496C7.64787 200.129 5.01661 198.954 3.0985 197.045C1.18038 195.136 0 192.516 0 189.628V155.629C0 152.838 1.10661 150.317 2.87717 148.432C1.10661 146.547 0 144.026 0 141.236V107.236C0 104.446 1.10661 101.925 2.87717 100.04C1.10661 98.1552 0 95.634 0 92.8436V58.8687C0 56.0782 1.10661 53.557 2.87717 51.6722C1.10661 49.7875 0 47.2663 0 44.4758V10.5009C0 7.61254 1.18038 4.99343 3.0985 3.08418C5.01661 1.17493 7.64787 0 10.5496 0H120.497C123.399 0 126.03 1.17493 127.948 3.08418C129.866 4.99343 131.047 7.61254 131.047 10.5009V44.5003C131.047 47.2907 129.94 49.8119 128.17 51.6967C129.94 53.5815 131.047 56.1027 131.047 58.8931V92.8925C131.047 95.683 129.94 98.2042 128.17 100.089C129.94 101.974 131.047 104.495 131.047 107.285V115.192V115.167ZM129.571 123.122C131.342 122.094 133.26 121.287 135.227 120.773C139.9 119.524 144.965 119.744 149.687 121.605L126.94 160.793C122.956 157.685 120.251 153.401 118.997 148.775C117.472 143.121 118.112 136.879 121.284 131.42C123.3 127.969 126.079 125.203 129.276 123.294C129.374 123.245 129.448 123.196 129.547 123.122H129.571ZM155.417 124.909L132.694 164.098C135.252 165.101 137.883 165.64 140.514 165.713H141.793C143.588 165.664 145.383 165.395 147.129 164.93C152.81 163.413 157.925 159.741 161.073 154.282C164.245 148.824 164.884 142.582 163.36 136.928C162.105 132.301 159.4 128.042 155.417 124.909ZM144.498 198.391H168.475C172.016 198.391 175.237 196.947 177.573 194.622C179.909 192.296 181.36 189.09 181.36 185.565V185.124C181.36 181.599 179.909 178.393 177.573 176.067C175.237 173.742 172.016 172.298 168.475 172.298H144.498V198.391ZM113.882 198.391C110.341 198.391 107.119 196.947 104.783 194.622L104.685 194.524C102.422 192.198 101.021 189.065 101.021 185.589V185.149C101.021 181.624 102.472 178.417 104.808 176.092C107.144 173.767 110.365 172.322 113.907 172.322H137.883V198.391H113.882Z"/>
</mask>
<path fill-rule="evenodd" clip-rule="evenodd" d="M113.882 165.713H122.489C117.546 161.724 114.153 156.339 112.579 150.488C110.611 143.219 111.447 135.19 115.554 128.14C117.841 124.199 120.891 120.993 124.407 118.594V107.285C124.407 106.208 123.964 105.254 123.276 104.544C122.563 103.834 121.579 103.393 120.522 103.393V96.809C121.579 96.809 122.563 96.3684 123.276 95.6585C123.989 94.9487 124.407 93.994 124.407 92.917V58.9176C124.407 57.8406 123.964 56.886 123.251 56.1761C122.538 55.4663 121.579 55.0502 120.497 55.0502V48.4412C121.579 48.4412 122.538 48.0006 123.251 47.2907C123.964 46.5809 124.382 45.6263 124.382 44.5493V10.5009C124.382 9.42388 123.94 8.46925 123.251 7.7594C122.538 7.04955 121.579 6.60896 120.497 6.60896H10.5496C9.46763 6.60896 8.50857 7.04955 7.79542 7.7594C7.08228 8.46925 6.66423 9.42388 6.66423 10.5009V44.5003C6.66423 45.5773 7.10687 46.5319 7.79542 47.2418C8.50857 47.9516 9.46763 48.3922 10.5496 48.3922V55.0012C9.46763 55.0012 8.50857 55.4418 7.79542 56.1272C7.08228 56.837 6.66423 57.7916 6.66423 58.8687V92.8681C6.66423 93.9451 7.10687 94.8997 7.79542 95.6096C8.50857 96.3194 9.49222 96.76 10.5496 96.76V103.344C9.49222 103.344 8.50857 103.785 7.79542 104.495C7.08228 105.205 6.66423 106.159 6.66423 107.236V141.236C6.66423 142.313 7.10687 143.267 7.79542 143.977C8.50857 144.687 9.46763 145.128 10.5496 145.128V151.737C9.46763 151.737 8.50857 152.177 7.79542 152.863C7.08228 153.573 6.66423 154.527 6.66423 155.604V189.604C6.66423 190.681 7.10687 191.635 7.79542 192.345C8.50857 193.055 9.46763 193.471 10.5496 193.471H96.078C95.0205 191.121 94.4057 188.527 94.3566 185.785C91.5532 185.296 89.0449 183.974 87.1267 182.064C84.6922 179.641 83.1922 176.288 83.1922 172.592C83.1922 168.896 84.6922 165.542 87.1267 163.119C89.5613 160.696 92.9303 159.202 96.6436 159.202C99.8896 159.202 102.89 160.353 105.201 162.262C106.578 163.388 107.71 164.783 108.546 166.374C110.243 165.909 112.013 165.64 113.857 165.64L113.882 165.713ZM96.6682 131.029C94.7746 131.029 93.0778 130.27 91.8483 129.046C90.6187 127.822 89.8564 126.133 89.8564 124.248C89.8564 122.364 90.6187 120.675 91.8483 119.451C93.0778 118.227 94.7746 117.468 96.6682 117.468C98.5617 117.468 100.258 118.227 101.488 119.451C102.718 120.675 103.48 122.364 103.48 124.248C103.48 126.133 102.718 127.822 101.488 129.046C100.258 130.27 98.5371 131.029 96.6682 131.029ZM106.16 133.721C103.726 136.144 100.357 137.638 96.6436 137.638C92.9303 137.638 89.5613 136.144 87.1267 133.721C84.6922 131.298 83.1922 127.944 83.1922 124.248C83.1922 120.552 84.6922 117.199 87.1267 114.776C89.5613 112.352 92.9303 110.859 96.6436 110.859C100.357 110.859 103.726 112.352 106.16 114.776C108.595 117.199 110.095 120.552 110.095 124.248C110.095 127.944 108.595 131.298 106.16 133.721ZM34.3785 131.029C32.485 131.029 30.7882 130.27 29.5587 129.046C28.3291 127.822 27.5668 126.133 27.5668 124.248C27.5668 122.364 28.3291 120.675 29.5587 119.451C30.7882 118.227 32.485 117.468 34.3785 117.468C36.2721 117.468 37.9689 118.227 39.1984 119.451C40.428 120.675 41.1903 122.364 41.1903 124.248C41.1903 126.133 40.428 127.822 39.1984 129.046C37.9689 130.27 36.2721 131.029 34.3785 131.029ZM43.8954 133.721C41.4608 136.144 38.0918 137.638 34.3785 137.638C30.6653 137.638 27.2963 136.144 24.8617 133.721C22.4272 131.298 20.9271 127.944 20.9271 124.248C20.9271 120.552 22.4272 117.199 24.8617 114.776C27.2963 112.352 30.6653 110.859 34.3785 110.859C38.0918 110.859 41.4608 112.352 43.8954 114.776C46.3299 117.199 47.83 120.552 47.83 124.248C47.83 127.944 46.3299 131.298 43.8954 133.721ZM95.291 179.274C93.9631 179.005 92.7827 178.344 91.8729 177.438C90.6433 176.214 89.881 174.525 89.881 172.641C89.881 170.756 90.6433 169.067 91.8729 167.843C93.1024 166.619 94.7992 165.86 96.6927 165.86C98.3404 165.86 99.865 166.448 101.021 167.402C101.66 167.916 102.201 168.577 102.619 169.287C101.734 169.924 100.898 170.633 100.111 171.392C97.9223 173.571 96.2501 176.263 95.291 179.25V179.274ZM34.3785 179.421C32.485 179.421 30.7882 178.662 29.5587 177.438C28.3291 176.214 27.5668 174.525 27.5668 172.641C27.5668 170.756 28.3291 169.067 29.5587 167.843C30.7882 166.619 32.485 165.86 34.3785 165.86C36.2721 165.86 37.9689 166.619 39.1984 167.843C40.428 169.067 41.1903 170.756 41.1903 172.641C41.1903 174.525 40.428 176.214 39.1984 177.438C37.9689 178.662 36.2721 179.421 34.3785 179.421ZM43.8954 182.113C41.4608 184.537 38.0918 186.03 34.3785 186.03C30.6653 186.03 27.2963 184.537 24.8617 182.113C22.4272 179.69 20.9271 176.337 20.9271 172.641C20.9271 168.944 22.4272 165.591 24.8617 163.168C27.2963 160.744 30.6653 159.251 34.3785 159.251C38.0918 159.251 41.4608 160.744 43.8954 163.168C46.3299 165.591 47.83 168.944 47.83 172.641C47.83 176.337 46.3299 179.69 43.8954 182.113ZM91.0368 151.761C89.1924 151.761 87.7169 150.268 87.7169 148.457C87.7169 146.645 89.217 145.152 91.0368 145.152H102.275C104.119 145.152 105.595 146.645 105.595 148.457C105.595 150.268 104.095 151.761 102.275 151.761H91.0368ZM59.9043 151.761C58.0599 151.761 56.5844 150.268 56.5844 148.457C56.5844 146.645 58.0845 145.152 59.9043 145.152H71.1424C72.9868 145.152 74.4623 146.645 74.4623 148.457C74.4623 150.268 72.9622 151.761 71.1424 151.761H59.9043ZM28.7717 151.761C26.9274 151.761 25.4519 150.268 25.4519 148.457C25.4519 146.645 26.952 145.152 28.7717 145.152H40.0099C41.8543 145.152 43.3298 146.645 43.3298 148.457C43.3298 150.268 41.8297 151.761 40.0099 151.761H28.7717ZM96.6682 62.4913C100.381 62.4913 103.75 63.9845 106.185 66.4078C108.619 68.831 110.12 72.1845 110.12 75.8806C110.12 79.5767 108.619 82.9301 106.185 85.3534C103.75 87.7767 100.381 89.2699 96.6682 89.2699C92.9549 89.2699 89.5859 87.7767 87.1513 85.3534C84.7168 82.9301 83.2167 79.5767 83.2167 75.8806C83.2167 72.1845 84.7168 68.831 87.1513 66.4078C89.5859 63.9845 92.9549 62.4913 96.6682 62.4913ZM101.463 71.083C102.693 72.3069 103.455 73.9958 103.455 75.8806C103.455 77.7654 102.693 79.4543 101.463 80.6782C100.234 81.9021 98.5371 82.6609 96.6436 82.6609C94.75 82.6609 93.0532 81.9021 91.8237 80.6782C90.5941 79.4543 89.8318 77.7654 89.8318 75.8806C89.8318 73.9958 90.5941 72.3069 91.8237 71.083C93.0532 69.8591 94.75 69.1003 96.6436 69.1003C98.5125 69.1003 100.234 69.8346 101.463 71.083ZM34.3785 62.4913C38.0918 62.4913 41.4608 63.9845 43.8954 66.4078C46.3299 68.831 47.83 72.1845 47.83 75.8806C47.83 79.5767 46.3299 82.9301 43.8954 85.3534C41.4608 87.7767 38.0918 89.2699 34.3785 89.2699C30.6653 89.2699 27.2963 87.7767 24.8617 85.3534C22.4272 82.9301 20.9271 79.5767 20.9271 75.8806C20.9271 72.1845 22.4272 68.831 24.8617 66.4078C27.2963 63.9845 30.6653 62.4913 34.3785 62.4913ZM39.1984 71.083C40.428 72.3069 41.1903 73.9958 41.1903 75.8806C41.1903 77.7654 40.428 79.4543 39.1984 80.6782C37.9689 81.9021 36.2721 82.6609 34.3785 82.6609C32.485 82.6609 30.7882 81.9021 29.5587 80.6782C28.3291 79.4543 27.5668 77.7654 27.5668 75.8806C27.5668 73.9958 28.3291 72.3069 29.5587 71.083C30.7882 69.8591 32.485 69.1003 34.3785 69.1003C36.2721 69.1003 37.9689 69.8346 39.1984 71.083ZM96.6682 14.0991C100.381 14.0991 103.75 15.5922 106.185 18.0155C108.619 20.4388 110.12 23.7922 110.12 27.4884C110.12 31.1845 108.619 34.5379 106.185 36.9612C103.75 39.3845 100.381 40.8776 96.6682 40.8776C92.9549 40.8776 89.5859 39.3845 87.1513 36.9612C84.7168 34.5379 83.2167 31.1845 83.2167 27.4884C83.2167 23.7922 84.7168 20.4388 87.1513 18.0155C89.5859 15.5922 92.9549 14.0991 96.6682 14.0991ZM101.463 22.6907C102.693 23.9146 103.455 25.6036 103.455 27.4884C103.455 29.3731 102.693 31.0621 101.463 32.286C100.234 33.5098 98.5371 34.2687 96.6436 34.2687C94.75 34.2687 93.0532 33.5098 91.8237 32.286C90.5941 31.0621 89.8318 29.3731 89.8318 27.4884C89.8318 25.6036 90.5941 23.9146 91.8237 22.6907C93.0532 21.4669 94.75 20.7081 96.6436 20.7081C98.5125 20.7081 100.234 21.4669 101.463 22.6907ZM34.3785 14.0991C38.0918 14.0991 41.4608 15.5922 43.8954 18.0155C46.3299 20.4388 47.83 23.7922 47.83 27.4884C47.83 31.1845 46.3299 34.5379 43.8954 36.9612C41.4608 39.3845 38.0918 40.8776 34.3785 40.8776C30.6653 40.8776 27.2963 39.3845 24.8617 36.9612C22.4272 34.5379 20.9271 31.1845 20.9271 27.4884C20.9271 23.7922 22.4272 20.4388 24.8617 18.0155C27.2963 15.5922 30.6653 14.0991 34.3785 14.0991ZM39.1984 22.6907C40.428 23.9146 41.1903 25.6036 41.1903 27.4884C41.1903 29.3731 40.428 31.0621 39.1984 32.286C37.9689 33.5098 36.2721 34.2687 34.3785 34.2687C32.485 34.2687 30.7882 33.5098 29.5587 32.286C28.3291 31.0621 27.5668 29.3731 27.5668 27.4884C27.5668 25.6036 28.3291 23.9146 29.5587 22.6907C30.7882 21.4669 32.485 20.7081 34.3785 20.7081C36.2721 20.7081 37.9689 21.4669 39.1984 22.6907ZM91.0368 103.369C89.1924 103.369 87.7169 101.876 87.7169 100.064C87.7169 98.2531 89.217 96.76 91.0368 96.76H102.275C104.119 96.76 105.595 98.2531 105.595 100.064C105.595 101.876 104.095 103.369 102.275 103.369H91.0368ZM59.9043 103.369C58.0599 103.369 56.5844 101.876 56.5844 100.064C56.5844 98.2531 58.0845 96.76 59.9043 96.76H71.1424C72.9868 96.76 74.4623 98.2531 74.4623 100.064C74.4623 101.876 72.9622 103.369 71.1424 103.369H59.9043ZM28.7717 103.369C26.9274 103.369 25.4519 101.876 25.4519 100.064C25.4519 98.2531 26.952 96.76 28.7717 96.76H40.0099C41.8543 96.76 43.3298 98.2531 43.3298 100.064C43.3298 101.876 41.8297 103.369 40.0099 103.369H28.7717ZM91.0368 55.0012C89.1924 55.0012 87.7169 53.5081 87.7169 51.6967C87.7169 49.8854 89.217 48.3922 91.0368 48.3922H102.275C104.119 48.3922 105.595 49.8854 105.595 51.6967C105.595 53.5081 104.095 55.0012 102.275 55.0012H91.0368ZM59.9043 55.0012C58.0599 55.0012 56.5844 53.5081 56.5844 51.6967C56.5844 49.8854 58.0845 48.3922 59.9043 48.3922H71.1424C72.9868 48.3922 74.4623 49.8854 74.4623 51.6967C74.4623 53.5081 72.9622 55.0012 71.1424 55.0012H59.9043ZM28.7717 55.0012C26.9274 55.0012 25.4519 53.5081 25.4519 51.6967C25.4519 49.8854 26.952 48.3922 28.7717 48.3922H40.0099C41.8543 48.3922 43.3298 49.8854 43.3298 51.6967C43.3298 53.5081 41.8297 55.0012 40.0099 55.0012H28.7717ZM131.047 115.167C131.858 114.873 132.67 114.604 133.506 114.384C140.76 112.45 148.728 113.258 155.761 117.223C155.835 117.272 155.884 117.297 155.958 117.321C163.04 121.384 167.786 127.92 169.753 135.214C171.721 142.484 170.884 150.513 166.802 157.562C164.933 160.769 162.573 163.486 159.868 165.689H168.475C173.86 165.689 178.729 167.867 182.27 171.392C185.811 174.917 188 179.764 188 185.124V185.565C188 190.925 185.811 195.772 182.27 199.297C178.729 202.821 173.86 205 168.475 205H113.882C108.939 205 104.439 203.164 100.972 200.129H10.5496C7.64787 200.129 5.01661 198.954 3.0985 197.045C1.18038 195.136 0 192.516 0 189.628V155.629C0 152.838 1.10661 150.317 2.87717 148.432C1.10661 146.547 0 144.026 0 141.236V107.236C0 104.446 1.10661 101.925 2.87717 100.04C1.10661 98.1552 0 95.634 0 92.8436V58.8687C0 56.0782 1.10661 53.557 2.87717 51.6722C1.10661 49.7875 0 47.2663 0 44.4758V10.5009C0 7.61254 1.18038 4.99343 3.0985 3.08418C5.01661 1.17493 7.64787 0 10.5496 0H120.497C123.399 0 126.03 1.17493 127.948 3.08418C129.866 4.99343 131.047 7.61254 131.047 10.5009V44.5003C131.047 47.2907 129.94 49.8119 128.17 51.6967C129.94 53.5815 131.047 56.1027 131.047 58.8931V92.8925C131.047 95.683 129.94 98.2042 128.17 100.089C129.94 101.974 131.047 104.495 131.047 107.285V115.192V115.167ZM129.571 123.122C131.342 122.094 133.26 121.287 135.227 120.773C139.9 119.524 144.965 119.744 149.687 121.605L126.94 160.793C122.956 157.685 120.251 153.401 118.997 148.775C117.472 143.121 118.112 136.879 121.284 131.42C123.3 127.969 126.079 125.203 129.276 123.294C129.374 123.245 129.448 123.196 129.547 123.122H129.571ZM155.417 124.909L132.694 164.098C135.252 165.101 137.883 165.64 140.514 165.713H141.793C143.588 165.664 145.383 165.395 147.129 164.93C152.81 163.413 157.925 159.741 161.073 154.282C164.245 148.824 164.884 142.582 163.36 136.928C162.105 132.301 159.4 128.042 155.417 124.909ZM144.498 198.391H168.475C172.016 198.391 175.237 196.947 177.573 194.622C179.909 192.296 181.36 189.09 181.36 185.565V185.124C181.36 181.599 179.909 178.393 177.573 176.067C175.237 173.742 172.016 172.298 168.475 172.298H144.498V198.391ZM113.882 198.391C110.341 198.391 107.119 196.947 104.783 194.622L104.685 194.524C102.422 192.198 101.021 189.065 101.021 185.589V185.149C101.021 181.624 102.472 178.417 104.808 176.092C107.144 173.767 110.365 172.322 113.907 172.322H137.883V198.391H113.882Z" fill="#FFC100" stroke="#0460A9" stroke-width="2.4" mask="url(#path-1-inside-1_0_4)"/>
</g>
</svg>
